<?xml version="1.0" encoding="UTF-8"?>
<svg id="emoji2" xmlns="http://www.w3.org/2000/svg" viewBox="0 0 85.68 85.68">
    <defs>
        <style>
            .cls-1{fill:#2c2c2c;}.cls-1,.cls-2,.cls-3,.cls-4{stroke-width:0px;}.cls-2{fill:#fee67b;}.cls-3{fill:#ffefaf;}.cls-4{fill:#fbdd45;}</style>
    </defs>
    <g id="Layer_1-2">
        <circle class="cls-4" cx="42.84" cy="42.84" r="42.84" />
        <path class="cls-2"
            d="m0,42.84c0,9.6,3.16,18.45,8.48,25.59,6.2,3.49,13.36,5.5,20.99,5.5,23.66,0,42.84-19.18,42.84-42.84,0-9.6-3.16-18.45-8.48-25.59-6.2-3.49-13.36-5.5-20.99-5.5C19.18,0,0,19.18,0,42.84Z" />
        <path class="cls-3"
            d="m5.8,47.19C5.8,24.87,23.89,6.78,46.21,6.78c13.84,0,26.05,6.96,33.34,17.57C72.76,11.38,59.15,2.51,43.45,2.51,20.98,2.51,2.75,20.68,2.75,43.09c0,9.99,3.63,19.13,9.63,26.2-4.16-6.35-6.59-13.94-6.59-22.1Z" />
        <ellipse class="cls-1" cx="26.88" cy="34.77" rx="3.85" ry="5.74" />
        <ellipse class="cls-1" cx="59.08" cy="34.77" rx="3.85" ry="5.74" />
        <path class="cls-1"
            d="m42.84,54.27c-6.22,0-11.69,2.5-14.82,6.28-2.75,2.26-2.17-1.01-2.17-1.01,2.06-7.56,8.89-13.1,16.99-13.1,8.1,0,14.93,5.55,16.99,13.1,0,0,.58,3.27-2.17,1.01-3.14-3.78-8.6-6.28-14.82-6.28Z" />
        <path class="cls-1"
            d="m60.19,21.16c2.51,1.34,5.23,1.55,7.27.77,1.57-.28.67.86.67.86-2.38,2.47-6.28,3.13-9.55,1.39-3.27-1.74-4.89-5.35-4.17-8.7,0,0,.44-1.38,1.08.08.49,2.13,2.18,4.27,4.69,5.61Z" />
        <path class="cls-1"
            d="m25.48,21.16c-2.51,1.34-5.23,1.55-7.27.77-1.57-.28-.67.86-.67.86,2.38,2.47,6.28,3.13,9.55,1.39,3.27-1.74,4.89-5.35,4.17-8.7,0,0-.44-1.38-1.08.08-.49,2.13-2.18,4.27-4.69,5.61Z" />
    </g>
</svg>