<svg width="86" height="86" viewBox="0 0 86 86" fill="none" xmlns="http://www.w3.org/2000/svg">
<g clip-path="url(#clip0_10792_429)">
<path d="M42.84 85.68C66.4999 85.68 85.68 66.4999 85.68 42.84C85.68 19.1801 66.4999 0 42.84 0C19.1801 0 0 19.1801 0 42.84C0 66.4999 19.1801 85.68 42.84 85.68Z" fill="#F6C912"/>
<path d="M0 42.84C0 52.44 3.16 61.29 8.48 68.43C14.68 71.92 21.84 73.93 29.47 73.93C53.13 73.93 72.31 54.75 72.31 31.09C72.31 21.49 69.15 12.64 63.83 5.5C57.63 2.01 50.47 0 42.84 0C19.18 0 0 19.18 0 42.84Z" fill="#F9D952"/>
<path d="M5.8 47.1898C5.8 24.8698 23.89 6.77977 46.21 6.77977C60.05 6.77977 72.26 13.7398 79.55 24.3498C72.76 11.3798 59.15 2.50977 43.45 2.50977C20.98 2.50977 2.75 20.6798 2.75 43.0898C2.75 53.0798 6.38 62.2198 12.38 69.2898C8.22 62.9398 5.79 55.3498 5.79 47.1898H5.8Z" fill="#FBE796"/>
<path d="M30.4594 40.98C32.5857 40.98 34.3094 38.4101 34.3094 35.24C34.3094 32.0699 32.5857 29.5 30.4594 29.5C28.3331 29.5 26.6094 32.0699 26.6094 35.24C26.6094 38.4101 28.3331 40.98 30.4594 40.98Z" fill="#2C2C2C"/>
<path d="M56.7602 40.98C58.8865 40.98 60.6102 38.4101 60.6102 35.24C60.6102 32.0699 58.8865 29.5 56.7602 29.5C54.6339 29.5 52.9102 32.0699 52.9102 35.24C52.9102 38.4101 54.6339 40.98 56.7602 40.98Z" fill="#2C2C2C"/>
<path d="M43.6114 59.3495C49.8314 59.3495 55.3014 56.8495 58.4314 53.0695C61.1814 50.8095 60.6014 54.0795 60.6014 54.0795C58.5414 61.6395 51.7114 67.1795 43.6114 67.1795C35.5114 67.1795 28.6814 61.6295 26.6214 54.0795C26.6214 54.0795 26.0414 50.8095 28.7914 53.0695C31.9314 56.8495 37.3914 59.3495 43.6114 59.3495Z" fill="#2C2C2C"/>
<path d="M56.7591 25.3204C53.9091 25.3204 51.4091 26.4104 49.9791 28.0604C48.7191 29.0404 48.9891 27.6204 48.9891 27.6204C49.9291 24.3204 53.0591 21.9004 56.7591 21.9004C60.4691 21.9004 63.5891 24.3204 64.5291 27.6204C64.5291 27.6204 64.7891 29.0504 63.5391 28.0604C62.1091 26.4104 59.6091 25.3204 56.7591 25.3204Z" fill="#2C2C2C"/>
<path d="M30.4584 25.3204C27.6084 25.3204 25.1084 26.4104 23.6784 28.0604C22.4184 29.0404 22.6884 27.6204 22.6884 27.6204C23.6284 24.3204 26.7584 21.9004 30.4584 21.9004C34.1684 21.9004 37.2884 24.3204 38.2284 27.6204C38.2284 27.6204 38.4884 29.0504 37.2384 28.0604C35.8084 26.4104 33.3084 25.3204 30.4584 25.3204Z" fill="#2C2C2C"/>
</g>
<defs>
<clipPath id="clip0_10792_429">
<rect width="85.68" height="85.68" fill="white"/>
</clipPath>
</defs>
</svg>
