<svg width="86" height="86" viewBox="0 0 86 86" fill="none" xmlns="http://www.w3.org/2000/svg">
<g clip-path="url(#clip0_10792_358)">
<path d="M42.84 85.68C66.4999 85.68 85.68 66.4999 85.68 42.84C85.68 19.1801 66.4999 0 42.84 0C19.1801 0 0 19.1801 0 42.84C0 66.4999 19.1801 85.68 42.84 85.68Z" fill="#F9DA57"/>
<path d="M0 42.84C0 52.44 3.16 61.29 8.48 68.43C14.68 71.92 21.84 73.93 29.47 73.93C53.13 73.93 72.31 54.75 72.31 31.09C72.31 21.49 69.15 12.64 63.83 5.5C57.63 2.01 50.47 0 42.84 0C19.18 0 0 19.18 0 42.84Z" fill="#FBE981"/>
<path d="M6.30953 47.1898C6.30953 24.8698 24.4095 6.77977 46.7295 6.77977C60.5695 6.77977 72.7795 13.7398 80.0695 24.3498C73.2695 11.3798 59.6595 2.50977 43.9695 2.50977C21.4895 2.50977 3.26953 20.6798 3.26953 43.0898C3.26953 53.0798 6.89953 62.2198 12.8995 69.2898C8.73953 62.9398 6.30953 55.3498 6.30953 47.1898Z" fill="#FCF0CA"/>
<path d="M28.5609 42.8394C30.6872 42.8394 32.4109 40.2695 32.4109 37.0994C32.4109 33.9293 30.6872 31.3594 28.5609 31.3594C26.4346 31.3594 24.7109 33.9293 24.7109 37.0994C24.7109 40.2695 26.4346 42.8394 28.5609 42.8394Z" fill="#2C2C2C"/>
<path d="M60.7719 42.8394C62.8982 42.8394 64.6219 40.2695 64.6219 37.0994C64.6219 33.9293 62.8982 31.3594 60.7719 31.3594C58.6456 31.3594 56.9219 33.9293 56.9219 37.0994C56.9219 40.2695 58.6456 42.8394 60.7719 42.8394Z" fill="#2C2C2C"/>
<path d="M44.5215 56.5995C38.3015 56.5995 32.8315 59.0995 29.7015 62.8795C26.9515 65.1395 27.5315 61.8695 27.5315 61.8695C29.5915 54.3095 36.4215 48.7695 44.5215 48.7695C52.6215 48.7695 59.4515 54.3195 61.5115 61.8695C61.5115 61.8695 62.0915 65.1395 59.3415 62.8795C56.2015 59.0995 50.7415 56.5995 44.5215 56.5995Z" fill="#2C2C2C"/>
<path d="M61.8784 23.489C64.3884 24.829 67.1084 25.0391 69.1484 24.2591C70.7184 23.9791 69.8184 25.1191 69.8184 25.1191C67.4384 27.5891 63.5384 28.2491 60.2684 26.5091C56.9984 24.7691 55.3784 21.159 56.0984 17.809C56.0984 17.809 56.5384 16.429 57.1784 17.889C57.6684 20.019 59.3584 22.1591 61.8684 23.4991L61.8784 23.489Z" fill="#2C2C2C"/>
<path d="M27.1694 23.489C24.6594 24.829 21.9394 25.0391 19.8994 24.2591C18.3294 23.9791 19.2294 25.1191 19.2294 25.1191C21.6094 27.5891 25.5094 28.2491 28.7794 26.5091C32.0494 24.7691 33.6694 21.159 32.9494 17.809C32.9494 17.809 32.5094 16.429 31.8694 17.889C31.3794 20.019 29.6894 22.1591 27.1794 23.4991L27.1694 23.489Z" fill="#2C2C2C"/>
</g>
<defs>
<clipPath id="clip0_10792_358">
<rect width="85.68" height="85.68" fill="white"/>
</clipPath>
</defs>
</svg>
