<?xml version="1.0" encoding="utf-8"?>
<!-- Generator: Adobe Illustrator 28.0.0, SVG Export Plug-In . SVG Version: 6.00 Build 0)  -->
<svg version="1.1" id="emoji1hover"
    xmlns="http://www.w3.org/2000/svg" xmlns:xlink="http://www.w3.org/1999/xlink" x="0px" y="0px"
    viewBox="0 0 85.7 85.7"
    style="enable-background:new 0 0 85.7 85.7;" xml:space="preserve">
<style type="text/css">
	.st0{fill:#F5B82C;}
	.st1{fill:#F9CC15;}
	.st2{fill:#2C2C2C;}
	.st3{fill:#ED2324;}
	.st4{fill:#FBDF64;}
</style>
<g id="Layer_1-2">
	<circle class="st0" cx="42.8" cy="42.8" r="42.8"/>
	<path class="st1" d="M0,42.8c0,9.6,3.2,18.5,8.5,25.6c6.2,3.5,13.4,5.5,21,5.5c23.7,0,42.8-19.2,42.8-42.8c0-9.6-3.2-18.5-8.5-25.6
		C57.6,2,50.5,0,42.8,0C19.2,0,0,19.2,0,42.8z"/>
	<ellipse class="st2" cx="26.9" cy="34.8" rx="3.9" ry="5.7"/>
	<ellipse class="st2" cx="59.2" cy="34.8" rx="3.8" ry="5.7"/>
	
		<rect x="27.5" y="16.8" transform="matrix(0.7071 -0.7071 0.7071 0.7071 -8.1147 27.9325)" class="st2" width="4.4" height="13.9"/>
	
		<rect x="49.6" y="21.6" transform="matrix(0.7071 -0.7071 0.7071 0.7071 -0.2379 46.9489)" class="st2" width="13.9" height="4.4"/>
	<path class="st2" d="M58.7,62.8c-0.8-9.5-7.6-16.9-15.9-16.9s-15.1,7.4-15.9,16.9C26.9,62.8,58.7,62.8,58.7,62.8z"/>
	<path class="st3" d="M58.7,62.8c-0.8-3.4-7.6-6.1-15.9-6.1s-15.1,2.7-15.9,6.1H58.7z"/>
	<path class="st4" d="M5.8,47.2c0-22.3,18.1-40.4,40.4-40.4c13.8,0,26,7,33.3,17.6c-6.8-13-20.4-21.8-36.1-21.8
		C21,2.5,2.8,20.7,2.8,43.1c0,10,3.6,19.1,9.6,26.2C8.2,62.9,5.8,55.4,5.8,47.2L5.8,47.2z"/>
</g>
</svg>