<?xml version="1.0" encoding="utf-8"?>
<!-- Generator: Adobe Illustrator 28.0.0, SVG Export Plug-In . SVG Version: 6.00 Build 0)  -->
<svg version="1.1" id="emoji5hover"
    xmlns="http://www.w3.org/2000/svg" xmlns:xlink="http://www.w3.org/1999/xlink" x="0px" y="0px"
    viewBox="0 0 85.7 85.7"
    style="enable-background:new 0 0 85.7 85.7;" xml:space="preserve">
<style type="text/css">
	.st0{fill:#F5B82C;}
	.st1{fill:#F9CC15;}
	.st2{fill:#FBDF64;}
	.st3{fill:#2C2C2C;}
	.st4{fill:#ED2324;}
</style>
<g id="Layer_1-2">
	<circle class="st0" cx="42.8" cy="42.8" r="42.8"/>
	<path class="st1" d="M0,42.8c0,9.6,3.2,18.5,8.5,25.6c6.2,3.5,13.4,5.5,21,5.5c23.7,0,42.8-19.2,42.8-42.8c0-9.6-3.2-18.5-8.5-25.6
		C57.6,2,50.5,0,42.8,0C19.2,0,0,19.2,0,42.8z"/>
	<path class="st2" d="M5.8,47.2c0-22.3,18.1-40.4,40.4-40.4c13.8,0,26,7,33.3,17.6c-6.8-13-20.4-21.8-36.1-21.8
		C21,2.5,2.8,20.7,2.8,43.1c0,10,3.6,19.1,9.6,26.2C8.2,62.9,5.8,55.4,5.8,47.2L5.8,47.2z"/>
	<path class="st3" d="M25,52c0,0.3,0,0.6,0,0.9c0,8.6,8,15.5,17.9,15.5s17.9-7,17.9-15.5c0-0.3,0-0.6,0-0.9H25z"/>
	<path class="st4" d="M42.8,60.7c-4.9,0-9.3,1.2-12.7,3.1c3.2,2.9,7.7,4.6,12.7,4.6s9.5-1.8,12.7-4.6C52.1,61.9,47.7,60.7,42.8,60.7
		z"/>
	<path class="st4" d="M24.1,47.2l-1.4-1.2c-2.4-2.2-4.4-4.1-5.9-5.7c-1.6-1.6-2.8-3-3.7-4.3c-0.9-1.2-1.6-2.4-1.9-3.4
		s-0.6-2-0.6-3.1c0-2,0.7-3.7,2.1-5.1s3.1-2,5.1-2c1.3,0,2.5,0.3,3.6,0.9s2,1.5,2.9,2.6c1-1.2,2-2.1,3-2.7s2.2-0.9,3.4-0.9
		c2,0,3.7,0.7,5.1,2c1.4,1.4,2,3.1,2,5.1c0,1-0.2,2.1-0.6,3.1s-1,2.2-2,3.4s-2.2,2.7-3.7,4.3c-1.6,1.6-3.5,3.5-5.9,5.7L24.1,47.2
		L24.1,47.2z"/>
	<path class="st4" d="M61.5,47.2l-1.4-1.2c-2.4-2.2-4.4-4.1-5.9-5.7c-1.6-1.6-2.8-3-3.7-4.3c-0.9-1.2-1.6-2.4-2-3.4s-0.6-2-0.6-3.1
		c0-2,0.7-3.7,2-5.1s3-2,5.1-2c1.3,0,2.5,0.3,3.6,0.9s2,1.5,2.9,2.6c1-1.2,2-2.1,3-2.7s2.2-0.9,3.4-0.9c2,0,3.7,0.7,5.1,2
		c1.4,1.4,2.1,3.1,2.1,5.1c0,1-0.2,2.1-0.6,3.1s-1,2.2-1.9,3.4s-2.2,2.7-3.7,4.3c-1.6,1.6-3.5,3.5-5.9,5.7L61.5,47.2L61.5,47.2z"/>
</g>
</svg>