<svg width="86" height="86" viewBox="0 0 86 86" fill="none" xmlns="http://www.w3.org/2000/svg">
<g clip-path="url(#clip0_10792_446)">
<path d="M42.84 85.68C66.4999 85.68 85.68 66.4999 85.68 42.84C85.68 19.1801 66.4999 0 42.84 0C19.1801 0 0 19.1801 0 42.84C0 66.4999 19.1801 85.68 42.84 85.68Z" fill="#EEB11E"/>
<path d="M0 42.84C0 52.44 3.16 61.29 8.48 68.43C14.68 71.92 21.84 73.93 29.47 73.93C53.13 73.93 72.31 54.75 72.31 31.09C72.31 21.49 69.15 12.64 63.83 5.5C57.63 2.01 50.47 0 42.84 0C19.18 0 0 19.18 0 42.84Z" fill="#F9CD18"/>
<path d="M26.9398 40.5093C29.0661 40.5093 30.7898 37.9394 30.7898 34.7693C30.7898 31.5992 29.0661 29.0293 26.9398 29.0293C24.8135 29.0293 23.0898 31.5992 23.0898 34.7693C23.0898 37.9394 24.8135 40.5093 26.9398 40.5093Z" fill="#2C2C2C"/>
<path d="M59.1508 40.5093C61.2771 40.5093 63.0008 37.9394 63.0008 34.7693C63.0008 31.5992 61.2771 29.0293 59.1508 29.0293C57.0245 29.0293 55.3008 31.5992 55.3008 34.7693C55.3008 37.9394 57.0245 40.5093 59.1508 40.5093Z" fill="#2C2C2C"/>
<path d="M26.2854 17.2947L23.1953 20.3848L33.0382 30.2277L36.1283 27.1376L26.2854 17.2947Z" fill="#2C2C2C"/>
<path d="M50.0857 27.1385L53.1758 30.2285L63.0187 20.3856L59.9287 17.2955L50.0857 27.1385Z" fill="#2C2C2C"/>
<path d="M58.6784 62.7701C57.8984 53.2601 51.0784 45.8301 42.7884 45.8301C34.4984 45.8301 27.6784 53.2601 26.8984 62.7701H58.6784Z" fill="#2C2C2C"/>
<path d="M58.6784 62.7692C57.8984 59.3592 51.0784 56.6992 42.7884 56.6992C34.4984 56.6992 27.6784 59.3692 26.8984 62.7692H58.6784Z" fill="#ED2324"/>
<path d="M5.8 47.1898C5.8 24.8698 23.89 6.77977 46.21 6.77977C60.05 6.77977 72.26 13.7398 79.55 24.3498C72.76 11.3798 59.15 2.50977 43.45 2.50977C20.98 2.50977 2.75 20.6798 2.75 43.0898C2.75 53.0798 6.38 62.2198 12.38 69.2898C8.22 62.9398 5.79 55.3498 5.79 47.1898H5.8Z" fill="#FCDF64"/>
</g>
<defs>
<clipPath id="clip0_10792_446">
<rect width="85.68" height="85.68" fill="white"/>
</clipPath>
</defs>
</svg>
