<?xml version="1.0" encoding="utf-8"?>
<!-- Generator: Adobe Illustrator 28.0.0, SVG Export Plug-In . SVG Version: 6.00 Build 0)  -->
<svg version="1.1" id="emoji4hover"
    xmlns="http://www.w3.org/2000/svg" xmlns:xlink="http://www.w3.org/1999/xlink" x="0px" y="0px"
    viewBox="0 0 85.7 85.7"
    style="enable-background:new 0 0 85.7 85.7;" xml:space="preserve">
<style type="text/css">
	.st0{fill:#F5B82C;}
	.st1{fill:#F9CC15;}
	.st2{fill:#FBDF64;}
	.st3{fill:#2C2C2C;}
</style>
<g id="Layer_1-2">
	<circle class="st0" cx="42.8" cy="42.8" r="42.8"/>
	<path class="st1" d="M0,42.8c0,9.6,3.2,18.5,8.5,25.6c6.2,3.5,13.4,5.5,21,5.5c23.7,0,42.8-19.2,42.8-42.8c0-9.6-3.2-18.5-8.5-25.6
		C57.6,2,50.5,0,42.8,0C19.2,0,0,19.2,0,42.8z"/>
	<path class="st2" d="M5.8,47.2c0-22.3,18.1-40.4,40.4-40.4c13.8,0,26,7,33.3,17.6c-6.8-13-20.4-21.8-36.1-21.8
		C21,2.5,2.8,20.7,2.8,43.1c0,10,3.6,19.1,9.6,26.2C8.2,62.9,5.8,55.4,5.8,47.2L5.8,47.2z"/>
	<ellipse class="st3" cx="26.4" cy="32" rx="3.9" ry="5.7"/>
	<ellipse class="st3" cx="58.6" cy="32" rx="3.8" ry="5.7"/>
	<path class="st3" d="M43.6,59.3c6.2,0,11.7-2.5,14.8-6.3c2.8-2.3,2.2,1,2.2,1c-2.1,7.6-8.9,13.1-17,13.1s-14.9-5.5-17-13.1
		c0,0-0.6-3.3,2.2-1C31.9,56.9,37.4,59.4,43.6,59.3z"/>
</g>
</svg>