<?xml version="1.0" encoding="UTF-8"?>
<svg id="emoji5" xmlns="http://www.w3.org/2000/svg" viewBox="0 0 85.68 85.68">
    <defs>
        <style>
            .cls-1{fill:#2c2c2c;}.cls-1,.cls-2,.cls-3,.cls-4,.cls-5{stroke-width:0px;}.cls-2{fill:#fee67b;}.cls-3{fill:#ffefaf;}.cls-4{fill:#fbdd45;}.cls-5{fill:#ed2324;}</style>
    </defs>
    <g id="Layer_1-2">
        <circle class="cls-4" cx="42.84" cy="42.84" r="42.84" />
        <path class="cls-2"
            d="m0,42.84c0,9.6,3.16,18.45,8.48,25.59,6.2,3.49,13.36,5.5,20.99,5.5,23.66,0,42.84-19.18,42.84-42.84,0-9.6-3.16-18.45-8.48-25.59-6.2-3.49-13.36-5.5-20.99-5.5C19.18,0,0,19.18,0,42.84Z" />
        <path class="cls-3"
            d="m5.8,47.19C5.8,24.87,23.89,6.78,46.21,6.78c13.84,0,26.05,6.96,33.34,17.57C72.76,11.38,59.15,2.51,43.45,2.51,20.98,2.51,2.75,20.68,2.75,43.09c0,9.99,3.63,19.13,9.63,26.2-4.16-6.35-6.59-13.94-6.59-22.1Z" />
        <path class="cls-1"
            d="m24.99,51.99c-.02.29-.03.57-.03.87,0,8.58,8,15.54,17.87,15.54s17.87-6.96,17.87-15.54c0-.29-.01-.58-.03-.87H24.99Z" />
        <path class="cls-5"
            d="m42.84,60.69c-4.86,0-9.29,1.17-12.7,3.1,3.24,2.85,7.73,4.61,12.7,4.61s9.46-1.76,12.7-4.61c-3.41-1.93-7.85-3.1-12.7-3.1Z" />
        <path class="cls-5"
            d="m24.13,47.18l-1.39-1.25c-2.39-2.19-4.36-4.08-5.92-5.67-1.56-1.59-2.8-3.01-3.73-4.27-.93-1.25-1.57-2.39-1.95-3.4s-.56-2.04-.56-3.08c0-2.04.68-3.74,2.05-5.1,1.37-1.36,3.05-2.05,5.06-2.05,1.29,0,2.48.3,3.57.91s2.05,1.49,2.86,2.64c.95-1.22,1.95-2.12,3.01-2.69s2.2-.86,3.42-.86c2.01,0,3.7.68,5.06,2.05,1.37,1.36,2.05,3.06,2.05,5.1,0,1.04-.19,2.07-.56,3.08s-1.02,2.15-1.95,3.4-2.17,2.67-3.73,4.27c-1.56,1.59-3.53,3.48-5.92,5.67l-1.39,1.25Z" />
        <path class="cls-5"
            d="m61.55,47.18l-1.39-1.25c-2.39-2.19-4.36-4.08-5.92-5.67-1.56-1.59-2.8-3.01-3.73-4.27-.93-1.25-1.57-2.39-1.95-3.4s-.56-2.04-.56-3.08c0-2.04.68-3.74,2.05-5.1,1.37-1.36,3.05-2.05,5.06-2.05,1.29,0,2.48.3,3.57.91s2.05,1.49,2.86,2.64c.95-1.22,1.95-2.12,3.01-2.69s2.2-.86,3.42-.86c2.01,0,3.7.68,5.06,2.05,1.37,1.36,2.05,3.06,2.05,5.1,0,1.04-.19,2.07-.56,3.08s-1.02,2.15-1.95,3.4-2.17,2.67-3.73,4.27c-1.56,1.59-3.53,3.48-5.92,5.67l-1.39,1.25Z" />
    </g>
</svg>