<?xml version="1.0" encoding="UTF-8"?>
<svg id="emoji1" xmlns="http://www.w3.org/2000/svg" viewBox="0 0 85.68 85.68">
    <defs>
        <style>
            .cls-1{fill:#2c2c2c;}.cls-1,.cls-2,.cls-3,.cls-4,.cls-5{stroke-width:0px;}.cls-2{fill:#fee67b;}.cls-3{fill:#ffefaf;}.cls-4{fill:#fbdd45;}.cls-5{fill:#ed2324;}</style>
    </defs>
    <g id="Layer_1-2">
        <circle class="cls-4" cx="42.84" cy="42.84" r="42.84" />
        <path class="cls-2"
            d="m0,42.84c0,9.6,3.16,18.45,8.48,25.59,6.2,3.49,13.36,5.5,20.99,5.5,23.66,0,42.84-19.18,42.84-42.84,0-9.6-3.16-18.45-8.48-25.59-6.2-3.49-13.36-5.5-20.99-5.5C19.18,0,0,19.18,0,42.84Z" />
        <ellipse class="cls-1" cx="26.94" cy="34.77" rx="3.85" ry="5.74" />
        <ellipse class="cls-1" cx="59.15" cy="34.77" rx="3.85" ry="5.74" />
        <rect class="cls-1" x="27.47" y="16.8" width="4.37" height="13.92"
            transform="translate(-8.11 27.93) rotate(-45)" />
        <rect class="cls-1" x="54.38" y="16.8" width="4.37" height="13.92"
            transform="translate(79.75 80.56) rotate(-135)" />
        <path class="cls-1"
            d="m58.68,62.77c-.78-9.51-7.6-16.94-15.89-16.94s-15.11,7.43-15.89,16.94h31.78Z" />
        <path class="cls-5"
            d="m58.68,62.77c-.78-3.41-7.6-6.07-15.89-6.07s-15.11,2.67-15.89,6.07h31.78Z" />
        <path class="cls-3"
            d="m5.8,47.19C5.8,24.87,23.89,6.78,46.21,6.78c13.84,0,26.05,6.96,33.34,17.57C72.76,11.38,59.15,2.51,43.45,2.51,20.98,2.51,2.75,20.68,2.75,43.09c0,9.99,3.63,19.13,9.63,26.2-4.16-6.35-6.59-13.94-6.59-22.1Z" />
    </g>
</svg>