<svg width="86" height="86" viewBox="0 0 86 86" fill="none" xmlns="http://www.w3.org/2000/svg">
<g clip-path="url(#clip0_10792_459)">
<path d="M42.84 85.68C66.4999 85.68 85.68 66.4999 85.68 42.84C85.68 19.1801 66.4999 0 42.84 0C19.1801 0 0 19.1801 0 42.84C0 66.4999 19.1801 85.68 42.84 85.68Z" fill="#EEB11E"/>
<path d="M0 42.84C0 52.44 3.16 61.29 8.48 68.43C14.68 71.92 21.84 73.93 29.47 73.93C53.13 73.93 72.31 54.75 72.31 31.09C72.31 21.49 69.15 12.64 63.83 5.5C57.63 2.01 50.47 0 42.84 0C19.18 0 0 19.18 0 42.84Z" fill="#F9CD18"/>
<path d="M5.8 47.1898C5.8 24.8698 23.89 6.77977 46.21 6.77977C60.05 6.77977 72.26 13.7398 79.55 24.3498C72.76 11.3798 59.15 2.50977 43.45 2.50977C20.98 2.50977 2.75 20.6798 2.75 43.0898C2.75 53.0798 6.38 62.2198 12.38 69.2898C8.22 62.9398 5.79 55.3498 5.79 47.1898H5.8Z" fill="#FCDF64"/>
<path d="M26.8812 40.5093C29.0075 40.5093 30.7312 37.9394 30.7312 34.7693C30.7312 31.5992 29.0075 29.0293 26.8812 29.0293C24.755 29.0293 23.0312 31.5992 23.0312 34.7693C23.0312 37.9394 24.755 40.5093 26.8812 40.5093Z" fill="#2C2C2C"/>
<path d="M59.0805 40.5093C61.2068 40.5093 62.9305 37.9394 62.9305 34.7693C62.9305 31.5992 61.2068 29.0293 59.0805 29.0293C56.9542 29.0293 55.2305 31.5992 55.2305 34.7693C55.2305 37.9394 56.9542 40.5093 59.0805 40.5093Z" fill="#2C2C2C"/>
<path d="M42.8418 54.2695C36.6218 54.2695 31.1518 56.7695 28.0218 60.5495C25.2718 62.8095 25.8518 59.5395 25.8518 59.5395C27.9118 51.9795 34.7418 46.4395 42.8418 46.4395C50.9418 46.4395 57.7718 51.9895 59.8318 59.5395C59.8318 59.5395 60.4118 62.8095 57.6618 60.5495C54.5218 56.7695 49.0618 54.2695 42.8418 54.2695Z" fill="#2C2C2C"/>
<path d="M60.1909 21.1609C62.7009 22.5009 65.4209 22.7109 67.4609 21.9309C69.0309 21.6509 68.1309 22.7909 68.1309 22.7909C65.7509 25.2609 61.8509 25.9209 58.5809 24.1809C55.3109 22.4409 53.6909 18.8309 54.4109 15.4809C54.4109 15.4809 54.8509 14.1009 55.4909 15.5609C55.9809 17.6909 57.6709 19.8309 60.1809 21.1709L60.1909 21.1609Z" fill="#2C2C2C"/>
<path d="M25.4819 21.1609C22.9719 22.5009 20.2519 22.7109 18.2119 21.9309C16.6419 21.6509 17.5419 22.7909 17.5419 22.7909C19.9219 25.2609 23.8219 25.9209 27.0919 24.1809C30.3619 22.4409 31.9819 18.8309 31.2619 15.4809C31.2619 15.4809 30.8219 14.1009 30.1819 15.5609C29.6919 17.6909 28.0019 19.8309 25.4919 21.1709L25.4819 21.1609Z" fill="#2C2C2C"/>
</g>
<defs>
<clipPath id="clip0_10792_459">
<rect width="85.68" height="85.68" fill="white"/>
</clipPath>
</defs>
</svg>
