<svg viewBox="0 0 537 596" fill="none" xmlns="http://www.w3.org/2000/svg" id="logo">
<path d="M4.2207 388.462C5.83349 367.32 18.3326 360.077 24.3806 359.098C21.5582 392.769 26.9006 448.494 29.9246 472.148C12.7887 471.659 4.2207 454.53 4.2207 440.827C4.2207 427.124 2.20471 414.889 4.2207 388.462Z" fill="#F5F4EF"/>
<path fill-rule="evenodd" clip-rule="evenodd" d="M24.5791 359.098L24.5287 359.718C21.8204 393.012 26.9487 448.16 29.855 471.587L29.9246 472.148L29.3601 472.131C20.9395 471.883 14.6322 467.416 10.4467 461.318C6.26811 455.231 4.18541 447.499 4.18541 440.625C4.18541 436.484 4.00306 432.463 3.80623 428.124C3.36147 418.318 2.84273 406.881 4.18673 388.726C5.75172 367.585 17.9125 360.21 23.9662 359.201L24.5791 359.098ZM23.5123 360.278C17.7283 361.596 6.63384 368.791 5.15289 388.797C3.8131 406.896 4.32789 418.229 4.77232 428.014C4.97024 432.371 5.15421 436.422 5.15421 440.625C5.15421 447.324 7.18893 454.86 11.2452 460.769C15.1992 466.53 21.056 470.724 28.8235 471.139C25.9241 447.549 20.9321 393.473 23.5123 360.278Z" fill="black"/>
<path fill-rule="evenodd" clip-rule="evenodd" d="M26.5302 359.098C23.7069 385.362 18.3663 451.004 29.9251 472.145C25.1089 472.308 12.0003 465.585 8.99981 453.059C7.00691 444.74 5.13851 389.929 8.50156 379.652C11.9816 369.018 24.8695 359.751 26.5302 359.098ZM24.9428 363.503C22.7839 363.177 20.4588 379.163 19.4624 411.951C17.961 461.357 27.415 470.329 25.4411 462.357C20.9571 444.25 20.9571 401.185 24.9428 363.503Z" fill="#D6D5CF"/>
<path d="M16.5693 379.814C17.1483 380.835 13.1515 399.212 7.94065 404.827C4.46677 410.953 9.04251 380.835 9.62151 379.814C10.2005 378.793 15.9903 378.793 16.5693 379.814Z" fill="#FFFEF9"/>
<path d="M301.283 32.095L288.143 142.332L296.043 144.912L308.277 32.0949L301.283 32.095Z" fill="#D9D9D9"/>
<path fill-rule="evenodd" clip-rule="evenodd" d="M308.822 31.6057L296.464 145.564L287.61 142.672L300.849 31.6058L308.822 31.6057ZM301.717 32.5835L288.676 141.991L295.622 144.26L307.733 32.5835L301.717 32.5835Z" fill="black"/>
<path d="M322.963 29.1943C319.778 38.947 309.289 44.2707 299.537 41.0853C289.784 37.8998 284.46 27.4114 287.646 17.6587C290.831 7.90609 301.32 2.58232 311.072 5.76778C320.825 8.95324 326.149 19.4417 322.963 29.1943Z" fill="#D9D9D9"/>
<path fill-rule="evenodd" clip-rule="evenodd" d="M299.84 40.1559C309.08 43.1737 319.016 38.1301 322.034 28.8907C325.052 19.6514 320.008 9.71499 310.769 6.69719C301.529 3.67939 291.593 8.72295 288.575 17.9623C285.557 27.2017 290.601 37.1381 299.84 40.1559ZM299.537 41.0853C309.289 44.2707 319.778 38.947 322.963 29.1943C326.149 19.4417 320.825 8.95324 311.072 5.76778C301.32 2.58232 290.831 7.90609 287.646 17.6587C284.46 27.4114 289.784 37.8998 299.537 41.0853Z" fill="black"/>
<path d="M242.724 59.8501L254.402 136.325H262.674L249.536 59.8501H242.724Z" fill="#D9D9D9"/>
<path fill-rule="evenodd" clip-rule="evenodd" d="M242.724 56.5247H250.091L262.674 136.324H253.908L242.724 56.5247ZM243.793 57.5098L254.701 135.339H261.585L249.313 57.5098H243.793Z" fill="black"/>
<path d="M0 418.23C0 443.606 4.43332 446.16 6.64997 448.873V389.023C4.43332 391.258 0 392.854 0 418.23Z" fill="#A2A2A2"/>
<path fill-rule="evenodd" clip-rule="evenodd" d="M6.64997 389.023V452.198L5.91352 451.154C5.75183 450.925 5.5734 450.694 5.38246 450.446C4.45564 449.244 3.23417 447.661 2.20373 444.086C0.970172 439.807 0 432.67 0 419.792C0 406.919 0.969502 400.017 2.20693 396.034C2.82854 394.033 3.51927 392.763 4.19058 391.844C4.52457 391.386 4.8492 391.022 5.1471 390.704C5.24314 390.601 5.33412 390.506 5.42102 390.415C5.61032 390.217 5.78018 390.039 5.94046 389.852L6.64997 389.023ZM2.98836 396.365C1.80132 400.186 0.831247 406.95 0.831247 419.792C0.831247 432.631 1.80065 439.646 2.99156 443.777C3.90296 446.938 4.93752 448.407 5.81873 449.559V391.303C5.78161 391.342 5.7446 391.381 5.70781 391.42C5.42232 391.725 5.12569 392.059 4.82326 392.473C4.22172 393.297 3.57898 394.464 2.98836 396.365Z" fill="black"/>
<path d="M533.643 455.621C532.06 472.731 524.982 483.296 522.456 485.844L528.083 424.996C530.145 427.477 535.225 438.511 533.643 455.621Z" fill="#A2A2A2"/>
<path fill-rule="evenodd" clip-rule="evenodd" d="M527.705 423.776L521.844 487.157L522.803 486.189C525.417 483.552 532.538 472.879 534.13 455.667C534.927 447.054 534.047 439.962 532.704 434.702C531.365 429.46 529.556 426.003 528.46 424.684L527.705 423.776ZM531.756 434.944C533.073 440.1 533.942 447.079 533.157 455.577C531.759 470.689 526.049 480.627 523.082 484.381L528.446 426.382C529.426 428.012 530.725 430.908 531.756 434.944Z" fill="black"/>
<path d="M528.526 425.528C528.913 404.355 520.933 398.425 507.734 395.003C507.363 428.746 494.254 483.695 489.157 506.953C516.534 506.953 522.448 491.244 523.709 477.614C524.969 463.984 528.042 451.995 528.526 425.528Z" fill="#F5F4EF"/>
<path fill-rule="evenodd" clip-rule="evenodd" d="M507.251 394.373L507.244 394.997C506.912 425.155 496.38 472.315 490.517 498.569C489.833 501.633 489.212 504.413 488.679 506.848L488.548 507.441L489.156 507.441C502.941 507.441 511.413 503.483 516.589 497.721C521.751 491.975 523.56 484.516 524.194 477.659C524.579 473.5 525.136 469.479 525.737 465.139C527.094 455.333 528.678 443.895 529.014 425.537C529.208 414.898 527.304 407.99 523.607 403.306C519.911 398.622 514.488 396.249 507.856 394.529L507.251 394.373ZM522.84 403.911C526.336 408.342 528.229 414.985 528.036 425.519C527.701 443.82 526.131 455.154 524.776 464.939C524.172 469.297 523.611 473.347 523.221 477.569C522.594 484.343 520.817 491.552 515.862 497.068C510.995 502.485 502.992 506.346 489.764 506.461C490.267 504.177 490.841 501.604 491.47 498.789C497.289 472.737 507.744 425.929 508.213 395.635C514.494 397.322 519.452 399.618 522.84 403.911Z" fill="black"/>
<path d="M262.674 44.887C262.674 54.9869 254.486 63.1745 244.387 63.1745C234.287 63.1745 226.099 54.9869 226.099 44.887C226.099 34.7872 234.287 26.5996 244.387 26.5996C254.486 26.5996 262.674 34.7872 262.674 44.887Z" fill="#D9D9D9"/>
<path fill-rule="evenodd" clip-rule="evenodd" d="M244.387 62.212C253.955 62.212 261.711 54.4553 261.711 44.887C261.711 35.3187 253.955 27.5621 244.387 27.5621C234.818 27.5621 227.062 35.3187 227.062 44.887C227.062 54.4553 234.818 62.212 244.387 62.212ZM244.387 63.1745C254.486 63.1745 262.674 54.9869 262.674 44.887C262.674 34.7872 254.486 26.5996 244.387 26.5996C234.287 26.5996 226.099 34.7872 226.099 44.887C226.099 54.9869 234.287 63.1745 244.387 63.1745Z" fill="black"/>
<path fill-rule="evenodd" clip-rule="evenodd" d="M273.745 136.325C44.4164 136.325 18.5343 330.241 23.8796 418.652C29.0181 503.645 47.8393 530.062 82.0672 547.608L82.4982 547.829C119.604 566.85 167.955 591.637 249.786 594.498C347.581 597.917 394.523 588.148 430.707 569.587C493.784 537.229 501.201 482.641 507.965 395.208C518.922 253.553 409.68 139.253 273.745 136.325ZM253.698 573.494C200.477 570.114 92.6296 548.876 87.9354 471.895C83.5867 400.579 147.59 297.515 262.499 297.515C358.338 297.515 426.306 360.037 440.486 455.775C455.969 560.306 338.29 578.867 253.698 573.494Z" fill="#F5F4EF"/>
<path fill-rule="evenodd" clip-rule="evenodd" d="M61.6445 244.836C27.3123 304.125 22.1892 374.448 24.8534 418.511C27.4162 460.895 33.3891 488.61 42.9524 507.903C52.5023 527.169 65.6497 538.069 82.6598 546.788L83.0899 547.008C120.102 565.98 168.279 590.674 249.836 593.525C347.403 596.936 394.151 587.186 430.153 568.72C461.516 552.633 479.022 531.04 489.545 502.59C500.08 474.104 503.616 438.744 506.992 395.108C517.905 254.041 409.111 140.219 273.724 137.3C159.462 137.301 95.9529 185.589 61.6445 244.836ZM60.7997 244.348C95.2891 184.788 159.128 136.325 273.73 136.325H273.74V136.325C409.675 139.253 518.922 253.543 507.965 395.183C504.591 438.794 501.051 474.293 490.46 502.928C479.856 531.598 462.186 553.385 430.598 569.587C394.377 588.165 347.431 597.912 249.801 594.499C168.026 591.64 119.694 566.866 82.6443 547.876L82.2142 547.655C65.0652 538.865 51.7414 527.831 42.0778 508.336C32.4276 488.868 26.4446 460.997 23.8792 418.569C21.209 374.409 26.3336 303.868 60.7997 244.348ZM130.398 357.66C160.24 322.959 205.008 297.172 262.506 297.172C310.44 297.172 351.428 312.808 382.208 340.434C412.985 368.059 433.528 407.648 440.618 455.513C444.495 481.686 440.04 502.521 429.813 518.955C419.591 535.382 403.632 547.363 384.581 555.89C346.493 572.936 295.934 576.222 253.691 573.54C227.104 571.851 186.853 565.703 152.647 550.348C118.447 534.995 90.165 510.376 87.8063 471.699C85.6275 435.974 100.566 392.35 130.398 357.66ZM131.138 358.296C101.448 392.82 86.6192 436.201 88.7804 471.64C91.1065 509.781 118.982 534.166 153.047 549.458C187.106 564.747 227.227 570.882 253.753 572.567C295.934 575.245 346.307 571.951 384.182 555C403.113 546.527 418.894 534.656 428.984 518.44C439.071 502.232 443.501 481.637 439.653 455.656C432.591 407.985 412.143 368.613 381.555 341.159C350.97 313.707 310.219 298.147 262.506 298.147C205.326 298.147 160.818 323.783 131.138 358.296Z" fill="black"/>
<path d="M86.6587 473.102C91.3745 549.85 199.718 571.024 253.184 574.394C338.166 579.75 456.386 561.245 440.832 457.031C426.587 361.582 358.306 299.249 262.026 299.249C146.588 299.249 82.29 402.002 86.6587 473.102Z" fill="#FFE59F"/>
<path fill-rule="evenodd" clip-rule="evenodd" d="M130.158 357.51C100.354 392.296 85.4675 436.006 87.637 471.713C89.972 510.143 117.955 534.714 152.151 550.121C186.341 565.526 226.617 571.708 253.246 573.405C295.589 576.104 346.156 572.785 384.177 555.705C403.181 547.168 419.023 535.207 429.152 518.868C439.277 502.537 443.725 481.786 439.862 455.608C432.773 407.577 412.245 367.906 381.54 340.244C350.837 312.583 309.929 296.906 262.032 296.906C204.632 296.906 159.952 322.736 130.158 357.51ZM129.415 356.87C159.372 321.906 204.313 295.924 262.032 295.924C310.151 295.924 351.297 311.677 382.195 339.513C413.091 367.347 433.713 407.237 440.831 455.464C444.723 481.835 440.25 502.829 429.984 519.387C419.723 535.938 403.702 548.01 384.578 556.601C346.343 573.777 295.589 577.088 253.184 574.385C226.493 572.684 186.088 566.489 151.75 551.017C117.418 535.549 89.0269 510.742 86.6591 471.773C84.4719 435.777 99.4681 391.822 129.415 356.87Z" fill="black"/>
<path d="M239.127 445.409C236.661 473.192 213.615 495.423 185.768 495.423C157.92 495.423 136.325 473.302 136.325 445.409C136.325 417.516 156.66 381.612 194.09 386.078C227.378 390.049 241.593 417.625 239.127 445.409Z" fill="#3B3B3B"/>
<path d="M299.591 452.156C302.06 479.885 321.489 502.073 349.375 502.073C377.261 502.073 395.673 479.995 395.673 452.156C395.673 421.925 372.143 392.289 341.042 395.987C307.707 399.951 297.122 424.426 299.591 452.156Z" fill="#3B3B3B"/>
<g filter="url(#filter0_d_234_8829)">
<path fill-rule="evenodd" clip-rule="evenodd" d="M349.375 500.116C322.729 500.116 303.945 478.941 301.544 451.982C300.333 438.379 302.349 425.811 308.538 416.219C314.68 406.701 325.097 399.855 341.274 397.931C356.091 396.169 369.15 402.325 378.57 412.665C388.01 423.028 393.712 437.524 393.712 452.156C393.712 479.118 375.984 500.116 349.375 500.116ZM349.375 502.073C321.489 502.073 302.06 479.885 299.591 452.156C297.122 424.426 307.707 399.951 341.042 395.987C372.143 392.289 395.673 421.925 395.673 452.156C395.673 479.995 377.261 502.073 349.375 502.073Z" fill="black"/>
</g>
<path fill-rule="evenodd" clip-rule="evenodd" d="M342.495 362.005C342.703 360.216 344.426 358.923 346.343 359.118C350.511 359.541 357.106 360.929 363.738 363.729C370.352 366.521 377.328 370.855 381.816 377.348C382.861 378.86 382.395 380.877 380.775 381.853C379.155 382.828 376.994 382.393 375.949 380.881C372.457 375.83 366.798 372.173 360.86 369.667C354.941 367.168 349.067 365.949 345.588 365.596C343.671 365.402 342.286 363.794 342.495 362.005Z" fill="#020203"/>
<path fill-rule="evenodd" clip-rule="evenodd" d="M178.658 354.889C184.837 353.133 191.384 352.274 195.708 352.7C197.602 352.887 199.292 351.525 199.482 349.658C199.671 347.791 198.289 346.126 196.394 345.939C190.865 345.395 183.374 346.477 176.746 348.361C173.394 349.314 170.141 350.505 167.355 351.878C164.635 353.217 162.078 354.866 160.398 356.851C159.179 358.293 159.377 360.435 160.84 361.636C162.303 362.837 164.477 362.642 165.696 361.201C166.48 360.275 168.048 359.133 170.439 357.955C172.764 356.809 175.606 355.756 178.658 354.889Z" fill="#020203"/>
<path d="M242.979 531.873C238.775 526.872 234.539 524.018 232.947 523.217C231.514 520.812 238.202 522.255 242.024 525.621C245.846 528.988 249.668 525.621 263.044 525.621C276.421 525.621 274.988 530.431 285.02 527.064C293.046 524.371 293.142 524.98 292.186 525.621C290.116 527.224 285.307 531.008 282.632 533.316C279.288 536.202 274.51 541.973 264 541.973C253.49 541.973 248.234 538.125 242.979 531.873Z" fill="#212121"/>
<path d="M178.6 392.348C158.84 394.934 148.833 415.284 146.3 425.136L164.825 425.598C170.145 413.406 176.858 404.201 179.55 401.122L178.6 392.348Z" fill="#D9D9D9"/>
<path d="M191.838 451.883C165.992 450.028 147.933 442.453 142.135 438.898C139.152 440.444 140.643 446.782 139.649 456.985C146.111 470.434 152.572 491.303 189.85 488.521C219.672 486.294 233.092 463.168 236.074 451.883C232.098 452.656 217.684 453.738 191.838 451.883Z" fill="#676767"/>
<path d="M143.354 462.173C142.569 438.203 144.99 423.369 146.299 418.948C142.863 422.878 141.391 426.316 139.918 437.614C138.74 446.652 141.718 457.753 143.354 462.173Z" fill="#303635"/>
<path d="M348.592 460.4C324.049 463.68 307.687 456.982 302.574 453.223C302.574 460.912 313.119 504.995 352.426 501.92C383.872 499.459 393.651 467.747 392.213 452.198C389.496 453.565 373.134 457.119 348.592 460.4Z" fill="#676767"/>
<path d="M310.924 417.176C307.765 421.129 306.257 430.68 305.899 434.962C308.052 437.432 307.693 431.998 309.129 426.069C310.565 420.141 314.872 412.236 310.924 417.176Z" fill="#D9D9D9"/>
<path d="M508.656 412.309C506.708 457.932 497.454 486.516 492.097 502.073H508.656C524.727 496.044 526.675 427.343 524.727 421.837C517.714 413.814 511.091 412.142 508.656 412.309Z" fill="#D7D7D7"/>
<path d="M508.722 414.565C514.375 414.565 521.844 419.704 524.872 422.273C526.487 419.734 523.526 413.054 522.853 410.031C520.431 404.228 513.096 402.474 508.722 402.323V414.565Z" fill="white"/>
<path fill-rule="evenodd" clip-rule="evenodd" d="M252.767 581.003C197.302 577.471 84.9082 555.277 80.0162 474.83C75.4841 400.303 142.186 292.599 261.939 292.599C361.819 292.599 432.652 357.936 447.43 457.984C463.565 567.221 340.926 586.618 252.767 581.003ZM253.316 574.203C200.486 570.838 93.4299 549.694 88.7701 473.051C84.4534 402.05 147.987 299.44 262.053 299.44C357.189 299.44 424.658 361.687 438.734 457.003C454.103 561.073 337.288 579.553 253.316 574.203Z" fill="#D9D9D9"/>
<path fill-rule="evenodd" clip-rule="evenodd" d="M124.772 355.723C156.13 319.509 203.17 292.599 263.587 292.599C313.954 292.599 357.023 308.916 389.364 337.746C421.704 366.574 443.29 407.89 450.74 457.843C454.814 485.156 450.132 506.898 439.389 524.045C428.649 541.185 411.882 553.688 391.864 562.586C351.843 580.375 298.715 583.805 254.325 581.005C226.385 579.243 184.089 572.826 148.146 556.801C112.209 540.779 82.4965 515.089 80.0185 474.733C77.7292 437.451 93.4257 391.926 124.772 355.723ZM125.515 356.359C94.311 392.396 78.725 437.679 80.9966 474.673C83.4418 514.494 112.745 539.951 148.547 555.913C184.342 571.871 226.509 578.275 254.387 580.033C298.715 582.829 351.656 579.391 391.464 561.696C411.361 552.852 427.949 540.459 438.557 523.53C449.159 506.608 453.816 485.107 449.771 457.986C442.349 408.228 420.858 367.129 388.71 338.471C356.563 309.814 313.733 293.573 263.587 293.573C203.489 293.573 156.709 320.333 125.515 356.359ZM131.462 359.564C161.334 325.058 206.147 299.417 263.701 299.417C311.682 299.417 352.711 314.964 383.521 342.434C414.329 369.903 434.892 409.27 441.989 456.865C445.87 482.891 441.41 503.61 431.174 519.951C420.941 536.285 404.966 548.2 385.896 556.678C347.77 573.628 297.161 576.896 254.878 574.228C228.264 572.549 187.974 566.436 153.734 551.167C119.5 535.902 91.1892 511.42 88.8281 472.961C86.6471 437.436 101.601 394.058 131.462 359.564ZM132.205 360.199C102.486 394.528 87.6429 437.664 89.8062 472.901C92.1345 510.825 120.036 535.073 154.135 550.278C188.227 565.481 228.387 571.581 254.94 573.256C297.161 575.92 347.584 572.644 385.496 555.789C404.445 547.364 420.241 535.56 430.342 519.436C440.437 503.32 444.872 482.842 441.02 457.008C433.952 409.608 413.483 370.458 382.866 343.159C352.251 315.862 311.461 300.391 263.701 300.391C206.465 300.391 161.913 325.882 132.205 360.199Z" fill="black"/>
<path d="M92.7533 289.759C100.945 254.458 130.3 228.177 143.953 219.449C148.829 225.753 155.168 224.783 162.97 229.147C169.212 232.638 176.623 246.765 179.549 253.392C169.017 264.641 148.179 307.215 139.077 327.095L101.53 359.098C95.1914 350.694 84.5614 325.059 92.7533 289.759Z" fill="#FFFFFD"/>
<path d="M358.519 193.107C352.237 183.245 358.191 182.752 361.954 183.738C364.408 182.094 375.205 181.667 398.763 193.107C428.21 207.406 454.713 241.43 465.51 265.592C474.148 284.921 463.874 298.3 457.657 302.574C448.627 293.895 426.738 282.85 416.922 278.412L382.567 241.43C378.15 222.692 366.371 205.434 358.519 193.107Z" fill="#FEFEFE" fill-opacity="0.8"/>
<defs>
<filter id="filter0_d_234_8829" x="295.249" y="395.674" width="104.425" height="114.4" filterUnits="userSpaceOnUse" color-interpolation-filters="sRGB">
<feFlood flood-opacity="0" result="BackgroundImageFix"/>
<feColorMatrix in="SourceAlpha" type="matrix" values="0 0 0 0 0 0 0 0 0 0 0 0 0 0 0 0 0 0 127 0" result="hardAlpha"/>
<feOffset dy="4"/>
<feGaussianBlur stdDeviation="2"/>
<feComposite in2="hardAlpha" operator="out"/>
<feColorMatrix type="matrix" values="0 0 0 0 0 0 0 0 0 0 0 0 0 0 0 0 0 0 0.25 0"/>
<feBlend mode="normal" in2="BackgroundImageFix" result="effect1_dropShadow_234_8829"/>
<feBlend mode="normal" in="SourceGraphic" in2="effect1_dropShadow_234_8829" result="shape"/>
</filter>
</defs>
</svg>
